<?xml version="1.0" encoding="UTF-8"?>
<svg version="1.1" xmlns="http://www.w3.org/2000/svg" width="600" height="600">
<path d="M0 0 C168.63 0 337.26 0 511 0 C511 168.63 511 337.26 511 511 C342.37 511 173.74 511 0 511 C0 342.37 0 173.74 0 0 Z " fill="#F1E097" transform="translate(53,41)"/>
<path d="M0 0 C0.7509648 -0.00438225 1.50192961 -0.00876451 2.27565092 -0.01327956 C4.79960945 -0.026666 7.32353306 -0.03284613 9.84751892 -0.03897095 C11.65437477 -0.0468722 13.46122905 -0.05514117 15.26808167 -0.06375122 C21.20982862 -0.0899744 27.15158262 -0.10528179 33.09336853 -0.11953735 C35.13962242 -0.12489741 37.18587626 -0.13027492 39.23213005 -0.13566971 C47.7462468 -0.15730121 56.26036166 -0.17603647 64.77449894 -0.1872921 C76.96991916 -0.20352079 89.16502024 -0.23666936 101.36032015 -0.29369295 C109.93796066 -0.33243036 118.51551596 -0.35192945 127.09324163 -0.35721266 C132.21442675 -0.36086165 137.3352715 -0.37283445 142.45636177 -0.4053154 C147.27864767 -0.43546185 152.10038845 -0.4416844 156.92274857 -0.42993164 C158.68754677 -0.42971144 160.45237075 -0.43797215 162.21708107 -0.45558548 C180.2735667 -0.62591534 180.2735667 -0.62591534 187.68321228 5.15390015 C192.87848097 10.84314304 194.83233689 14.84279039 194.8303833 22.51574707 C194.83405999 23.28360279 194.83773668 24.05145851 194.84152478 24.84258258 C194.85258568 27.42959745 194.85640956 30.01657218 194.86021423 32.60360718 C194.86647718 34.45296863 194.87312383 36.30232882 194.88012695 38.15168762 C194.89755493 43.18706534 194.9080941 48.22243354 194.91633248 53.25783396 C194.92147994 56.40340624 194.92755585 59.54897555 194.93384361 62.69454575 C194.95290264 72.53499297 194.96713099 82.37543267 194.97545558 92.21589482 C194.98522481 103.57692461 195.01153319 114.9377594 195.05195647 126.29872048 C195.08212065 135.07758345 195.09692484 143.85639055 195.10023659 152.63530433 C195.10258717 157.87934439 195.11154837 163.12317631 195.13669777 168.3671608 C195.159988 173.30345952 195.16420782 178.2394132 195.15393639 183.17575264 C195.15344111 184.9849201 195.15975908 186.79410459 195.17349243 188.60321999 C195.19123261 191.07927494 195.18409539 193.55409454 195.17095947 196.03015137 C195.18192872 196.74087362 195.19289796 197.45159588 195.20419961 198.18385518 C195.12476025 204.41481494 192.97535944 209.49767593 188.93711853 214.17733765 C188.37895447 214.62335327 187.82079041 215.0693689 187.24571228 215.52890015 C186.69012634 215.99038452 186.13454041 216.4518689 185.56211853 216.92733765 C180.84665035 220.00562664 176.51152227 220.44533098 170.99183655 220.42132568 C169.84127504 220.42812235 169.84127504 220.42812235 168.66746986 220.43505633 C166.101204 220.447701 163.53515035 220.44607993 160.96885681 220.44442749 C159.12728096 220.45041267 157.28570762 220.4572182 155.44413757 220.46478271 C150.44410969 220.48245028 145.44415026 220.4871384 140.44409418 220.48841429 C137.31978169 220.48983594 134.1954866 220.49410578 131.07117844 220.49940872 C120.17019801 220.51791101 109.26926649 220.52607902 98.36827087 220.52450562 C88.20887124 220.52330394 78.04968396 220.54441099 67.89033806 220.57599294 C59.16577376 220.60214764 50.44127885 220.61287326 41.71667564 220.6115948 C36.50681778 220.61108496 31.29714866 220.6167805 26.08732986 220.6379509 C21.1870914 220.6573198 16.28722202 220.65746692 11.38697052 220.64291763 C9.59028713 220.64082681 7.79358072 220.64554669 5.9969368 220.65763855 C3.54037684 220.67309878 1.08508831 220.66377868 -1.3714447 220.64837646 C-2.07914249 220.65866359 -2.78684028 220.66895072 -3.51598346 220.67954957 C-9.63007583 220.59507879 -13.73873172 218.49140731 -18.24256897 214.4078064 C-18.70018616 213.84964233 -19.15780334 213.29147827 -19.62928772 212.71640015 C-20.09979553 212.16081421 -20.57030334 211.60522827 -21.05506897 211.0328064 C-24.20344844 206.34435275 -24.61106772 201.9627032 -24.59767151 196.4380188 C-24.60361375 195.66830537 -24.609556 194.89859194 -24.61567831 194.10555387 C-24.63300108 191.53015364 -24.63606436 188.95493991 -24.63905334 186.37948608 C-24.64831334 184.53130193 -24.65836315 182.68312159 -24.66914368 180.83494568 C-24.69536057 175.81620391 -24.70827543 170.79751562 -24.71716499 165.77871609 C-24.7230314 162.64165721 -24.73124194 159.50461288 -24.74017334 156.36756134 C-24.76751484 146.54794405 -24.78685234 136.72836009 -24.79457712 126.90870738 C-24.80353732 115.58155601 -24.83863136 104.25488748 -24.89657831 92.92788291 C-24.93983956 84.16676974 -24.95998713 75.40579228 -24.96265936 66.64457345 C-24.96475346 61.41441796 -24.97652511 56.18471661 -25.01229858 50.95467377 C-25.04530882 46.0329666 -25.04954862 41.11205376 -25.03202057 36.19027519 C-25.03048237 34.38796546 -25.03913219 32.5856126 -25.05893707 30.78341103 C-25.22860853 14.37629021 -25.22860853 14.37629021 -20.01316071 7.77254105 C-13.98644571 2.02198532 -8.22654484 0.00581431 0 0 Z " fill="#F1E097" transform="translate(135.31678771972656,273.8460998535156)"/>
<path d="M0 0 C1.8233155 -0.00243364 3.64662966 -0.00615847 5.46994019 -0.01106262 C10.38105699 -0.02039634 15.29197187 -0.01111032 20.20307279 0.00226951 C25.36592683 0.01366539 30.52877211 0.00947029 35.69163513 0.00752258 C44.35711935 0.00664224 53.02252495 0.01766606 61.68798828 0.03613281 C71.67869294 0.05730306 81.6692826 0.06080727 91.66000515 0.05457085 C101.30822794 0.04885866 110.95641061 0.05454425 120.60462761 0.0657444 C124.69399705 0.07036517 128.78334176 0.07127525 132.87271309 0.06915855 C137.69504445 0.06726251 142.51726026 0.07547986 147.33956528 0.09121895 C149.099862 0.09542879 150.86017053 0.09633486 152.62047005 0.09352875 C177.96651988 0.05927981 177.96651988 0.05927981 189.57592773 5.49731445 C190.24551514 5.8015332 190.91510254 6.10575195 191.60498047 6.41918945 C208.89970621 14.5764142 220.98413004 28.40091413 227.45092773 46.37231445 C229.04738014 52.25166625 229.7419013 57.78113688 229.70489502 63.85946655 C229.708015 64.66385497 229.71113498 65.46824338 229.71434951 66.2970072 C229.72226398 68.96590382 229.71603162 71.63456889 229.7097168 74.3034668 C229.71242961 76.22780998 229.71599218 78.15215212 229.72033691 80.07649231 C229.72942978 85.28523556 229.72592913 90.49389929 229.71957874 95.70264387 C229.71450122 101.16542233 229.7192152 106.62819416 229.72235107 112.0909729 C229.72598623 121.26549496 229.72120408 130.43998479 229.71166992 139.61450195 C229.70079275 150.20327923 229.70430743 160.79197943 229.71532273 171.38075483 C229.72441619 180.48847052 229.72567063 189.59616309 229.72044539 198.70388186 C229.71733618 204.1361922 229.71688733 209.5684664 229.72351837 215.00077438 C229.72932095 220.11111471 229.72524186 225.22135629 229.71372986 230.33168602 C229.71109852 232.20086313 229.71182209 234.07004863 229.71625519 235.93922234 C229.7684455 260.19195857 229.7684455 260.19195857 223.88842773 271.37231445 C223.5376416 272.05165039 223.18685547 272.73098633 222.82543945 273.4309082 C213.5708777 290.7377157 198.89522206 301.33021804 180.45092773 307.37231445 C175.71598864 308.35675493 171.09322694 308.5230026 166.27552795 308.5262146 C165.46835797 308.53059685 164.66118799 308.53497911 163.82955831 308.53949416 C161.13311453 308.5528157 158.43670338 308.55904606 155.74023438 308.56518555 C153.80311945 308.57309191 151.86600599 308.58136119 149.92889404 308.58996582 C143.57297155 308.61612941 137.21704267 308.63149022 130.86108398 308.64575195 C128.66789687 308.65111441 126.47470979 308.65649193 124.28152275 308.66188431 C115.15308356 308.68350686 106.02464609 308.70224049 96.89618778 308.7135067 C83.84273721 308.72972639 70.78958518 308.76286349 57.73624712 308.81990755 C48.54276188 308.85870442 39.34935614 308.87815105 30.15579122 308.88342726 C24.67288338 308.88706802 19.19029437 308.89895301 13.70747566 308.93153 C8.54206074 308.96178154 3.37715473 308.96786188 -1.78833008 308.95614624 C-3.67358366 308.95592691 -5.55886204 308.96411377 -7.44403267 308.98180008 C-27.41713512 309.15882917 -44.2542049 304.04736592 -59.16625977 289.95043945 C-74.83064454 273.00208871 -77.85710992 255.46635659 -77.82373047 233.22998047 C-77.82808405 231.30696414 -77.83326934 229.38394955 -77.83921814 227.4609375 C-77.8525487 222.26464816 -77.85319354 217.06843182 -77.85065484 211.87212873 C-77.84958125 207.52337755 -77.8544783 203.17464091 -77.85926026 198.82589287 C-77.87033453 188.5619773 -77.87080434 178.29809833 -77.86474609 168.03417969 C-77.85870515 157.46807644 -77.87102522 146.90210632 -77.89231616 136.33602577 C-77.90996306 127.24184021 -77.91592872 118.14769691 -77.91267842 109.05349487 C-77.91087062 103.63177772 -77.91345155 98.2101556 -77.92739296 92.78845406 C-77.94001731 87.6887207 -77.93798376 82.58919419 -77.92498207 77.48946381 C-77.9226269 75.62554032 -77.92531269 73.76160207 -77.93360519 71.89769554 C-78.01615435 51.88974 -73.88139247 35.20866667 -59.75366211 20.3815918 C-42.95577373 3.58370342 -22.75053155 -0.10749501 0 0 Z M-28.50009441 51.50864506 C-32.58168807 56.70390106 -33.69791638 60.16289186 -33.69624329 66.73416138 C-33.69991997 67.5020171 -33.70359666 68.26987282 -33.70738477 69.06099689 C-33.71844567 71.64801175 -33.72226954 74.23498648 -33.72607422 76.82202148 C-33.73233717 78.67138294 -33.73898381 80.52074313 -33.74598694 82.37010193 C-33.76341492 87.40547964 -33.77395408 92.44084785 -33.78219247 97.47624826 C-33.78733992 100.62182055 -33.79341584 103.76738986 -33.7997036 106.91296005 C-33.81876262 116.75340728 -33.83299098 126.59384698 -33.84131557 136.43430912 C-33.85108479 147.79533891 -33.87739318 159.1561737 -33.91781646 170.51713479 C-33.94798063 179.29599775 -33.96278482 188.07480485 -33.96609658 196.85371864 C-33.96844716 202.0977587 -33.97740835 207.34159061 -34.00255775 212.5855751 C-34.02584798 217.52187382 -34.03006781 222.45782751 -34.01979637 227.39416695 C-34.0193011 229.2033344 -34.02561906 231.01251889 -34.03935242 232.82163429 C-34.0570926 235.29768925 -34.04995537 237.77250885 -34.03681946 240.24856567 C-34.0477887 240.95928793 -34.05875795 241.67001019 -34.0700596 242.40226948 C-33.98825598 248.81867357 -31.74476858 253.91532607 -27.51391602 258.6496582 C-26.51038086 259.47143555 -26.51038086 259.47143555 -25.48657227 260.30981445 C-24.8149707 260.87571289 -24.14336914 261.44161133 -23.45141602 262.0246582 C-19.5644967 264.77822527 -15.66407193 264.52065727 -11.10493469 264.51948547 C-9.9579948 264.52500051 -9.9579948 264.52500051 -8.78788441 264.53062695 C-6.2177951 264.54166719 -3.64774621 264.54550822 -1.07763672 264.54931641 C0.76202015 264.55558083 2.60167575 264.56222762 4.44132996 264.56922913 C10.49009316 264.59027544 16.53885663 264.60063244 22.58764648 264.6105957 C24.66985398 264.61464313 26.75206135 264.61876004 28.83426857 264.62294579 C38.61704727 264.64199916 48.39981843 264.65622956 58.18261212 264.66455775 C69.47458175 264.6743294 80.76635531 264.70064646 92.05825585 264.74105865 C100.786184 264.77122253 109.51405595 264.78602692 118.24203521 264.78933877 C123.45476178 264.79168906 128.66727892 264.80064689 133.87994957 264.82579994 C138.78589346 264.84909015 143.69149019 264.85331002 148.59747505 264.84303856 C150.39535553 264.84254331 152.19325315 264.84886053 153.99108124 264.8625946 C156.45175846 264.8803363 158.91119281 264.87319692 161.37187195 264.86006165 C162.07802114 264.87103089 162.78417033 264.88200014 163.51171798 264.89330178 C169.72605754 264.81358873 174.80760804 262.65332585 179.47436523 258.6262207 C180.14338867 257.78897461 180.14338867 257.78897461 180.82592773 256.93481445 C181.28741211 256.37922852 181.74889648 255.82364258 182.22436523 255.2512207 C185.30562909 250.5311955 185.74520835 246.18137292 185.73181152 240.65643311 C185.73775377 239.88671968 185.74369601 239.11700625 185.74981833 238.32396817 C185.76714109 235.74856795 185.77020437 233.17335422 185.77319336 230.59790039 C185.78245335 228.74971624 185.79250317 226.9015359 185.80328369 225.05335999 C185.82950059 220.03461822 185.84241544 215.01592992 185.85130501 209.99713039 C185.85717141 206.86007152 185.86538195 203.72302719 185.87431335 200.58597565 C185.90165486 190.76635836 185.92099236 180.9467744 185.92871714 171.12712169 C185.93767734 159.79997031 185.97277137 148.47330178 186.03071833 137.14629722 C186.07397958 128.38518404 186.09412714 119.62420659 186.09679937 110.86298776 C186.09889347 105.63283226 186.11066512 100.40313091 186.1464386 95.17308807 C186.17944883 90.25138091 186.18368863 85.33046806 186.16616058 80.4086895 C186.16462238 78.60637977 186.17327221 76.8040269 186.19307709 75.00182533 C186.46629058 62.70214582 186.46629058 62.70214582 181.03743744 51.93602371 C175.07622987 46.06048734 169.0775568 44.0698612 160.89363098 44.09815979 C160.14095733 44.09292311 159.38828368 44.08768643 158.61280173 44.08229107 C156.0950039 44.06730995 153.57740963 44.06658633 151.05957031 44.06591797 C149.25241758 44.05829509 147.44526809 44.04986736 145.63812256 44.04069519 C140.73087264 44.01875303 135.82368504 44.00995138 130.91639161 44.00486875 C127.84833873 44.00122412 124.78030214 43.99498343 121.71225548 43.98786736 C111.00233621 43.96337155 100.29246537 43.95032117 89.58251953 43.94677734 C79.61058645 43.94314442 69.63896159 43.91326673 59.66712266 43.87137276 C51.09792366 43.83663802 42.52882662 43.82122833 33.95955771 43.82053131 C28.84512546 43.81973943 23.73100704 43.81104201 18.61664772 43.78253365 C13.80252212 43.7562993 8.98896933 43.75417775 4.17480469 43.77018929 C2.41323787 43.77199965 0.65163771 43.7653505 -1.10985756 43.74937057 C-16.19418848 43.55909215 -16.19418848 43.55909215 -28.50009441 51.50864506 Z " fill="#020201" transform="translate(144.549072265625,229.627685546875)"/>
<path d="M0 0 C4.18970182 3.85583496 8.21873281 7.85533947 12.1875 11.9375 C13.89252684 13.75857096 13.89252684 13.75857096 16 14.6875 C16 15.3475 16 16.0075 16 16.6875 C16.66 16.6875 17.32 16.6875 18 16.6875 C18 17.3475 18 18.0075 18 18.6875 C18.66 18.6875 19.32 18.6875 20 18.6875 C20 19.3475 20 20.0075 20 20.6875 C20.54970459 20.91156021 21.09940918 21.13562042 21.66577148 21.36647034 C24.69048593 23.07827253 26.93340748 25.36604675 29.34765625 27.82397461 C29.868508 28.34614059 30.38935974 28.86830658 30.92599487 29.40629578 C32.64281074 31.12959068 34.3525395 32.85974871 36.0625 34.58984375 C37.25738311 35.79100006 38.45278469 36.99164081 39.64868164 38.19178772 C42.79467388 41.35107566 45.93505226 44.51588039 49.07385254 47.68231201 C54.09646702 52.74805751 59.12578736 57.80712272 64.15841675 62.86291695 C65.91344712 64.62815103 67.6650124 66.39677009 69.41625977 68.16575623 C70.49483734 69.25116413 71.5735261 70.33646157 72.65234375 71.42163086 C73.37875565 72.1581488 73.37875565 72.1581488 74.11984253 72.9095459 C76.10725047 74.9035875 78.05742416 76.72942284 80.33422852 78.39161682 C80.88393311 78.81925827 81.4336377 79.24689972 82 79.6875 C82 80.3475 82 81.0075 82 81.6875 C83.32 82.3475 84.64 83.0075 86 83.6875 C86 84.3475 86 85.0075 86 85.6875 C86.55397461 85.91767822 87.10794922 86.14785645 87.67871094 86.38500977 C92.35697793 89.01001549 95.9234344 93.2792698 99.68896484 97.06079102 C101.22246522 98.59740923 102.7686627 100.12032507 104.31640625 101.64257812 C120.88931601 118.10911427 130.27120954 135.60724552 130.5625 159.25 C130.49839822 168.94915381 128.99440536 176.77445186 125 185.6875 C124.5771875 186.71746094 124.154375 187.74742187 123.71875 188.80859375 C116.84397807 204.17690659 102.96381211 216.03645069 91.23828125 227.75 C89.63627388 229.35590436 88.03448662 230.96202832 86.4329071 232.56835938 C83.09886647 235.90980688 79.76104991 239.2474255 76.4206543 242.58251953 C72.15214865 246.84520087 67.89519222 251.1192164 63.64117146 255.39634705 C60.3460632 258.70620881 57.04403107 262.00909487 53.7399807 265.31002808 C52.16724686 266.88327309 50.59685546 268.4588636 49.02892494 270.03689575 C46.83801551 272.24020004 44.63769955 274.43367765 42.43481445 276.625 C41.79825424 277.26920395 41.16169403 277.9134079 40.50584412 278.57713318 C34.60876388 284.4063295 28.32111852 289.17456936 20 290.6875 C13.622516 290.45559149 7.88963856 288.43042402 3.23046875 284.0078125 C-1.19684529 278.98803551 -3.29987984 275.26993642 -3.4375 268.4375 C-3.47746094 267.35984375 -3.51742187 266.2821875 -3.55859375 265.171875 C-2.35370046 257.65603712 3.05248516 252.20125758 8.359375 247.0703125 C8.9492218 246.48708221 9.5390686 245.90385193 10.14678955 245.302948 C12.00745281 243.46544204 13.87807856 241.63852917 15.75 239.8125 C17.63433825 237.9632617 19.51647778 236.11185699 21.39605713 234.25778198 C22.5603303 233.1104557 23.72767101 231.96623215 24.89837646 230.82546997 C27.81621087 228.03834244 27.81621087 228.03834244 30 224.6875 C30.66 224.6875 31.32 224.6875 32 224.6875 C32 224.0275 32 223.3675 32 222.6875 C32.66 222.6875 33.32 222.6875 34 222.6875 C34 222.0275 34 221.3675 34 220.6875 C34.66 220.6875 35.32 220.6875 36 220.6875 C36 220.0275 36 219.3675 36 218.6875 C36.66 218.6875 37.32 218.6875 38 218.6875 C38 218.0275 38 217.3675 38 216.6875 C38.66 216.6875 39.32 216.6875 40 216.6875 C40 216.0275 40 215.3675 40 214.6875 C40.66 214.6875 41.32 214.6875 42 214.6875 C42 214.0275 42 213.3675 42 212.6875 C46.30232558 207.92005814 46.30232558 207.92005814 50 206.6875 C50.70695436 205.37508324 51.37053269 204.03879313 52 202.6875 C53.31454468 201.16609192 53.31454468 201.16609192 54.82568359 199.71411133 C55.39322357 199.16286087 55.96076355 198.61161041 56.54550171 198.0436554 C57.15697052 197.45819443 57.76843933 196.87273346 58.3984375 196.26953125 C59.69574937 195.00240025 60.99261007 193.73480719 62.2890625 192.46679688 C64.32681467 190.48461532 66.36815638 188.50657619 68.41796875 186.53686523 C70.40212608 184.62586651 72.36976743 182.69900936 74.3359375 180.76953125 C74.94335785 180.19419144 75.5507782 179.61885162 76.17660522 179.02607727 C81.28320638 173.98028286 84.4061189 168.45602493 85.53125 161.31640625 C85.51578125 159.79853516 85.51578125 159.79853516 85.5 158.25 C85.5103125 157.24066406 85.520625 156.23132813 85.53125 155.19140625 C83.99054938 145.02957934 79.21242294 139.0509245 71.875 132.125 C71.05128906 131.31998047 70.22757813 130.51496094 69.37890625 129.68554688 C65.52557874 125.73149795 65.52557874 125.73149795 61 122.6875 C61 122.0275 61 121.3675 61 120.6875 C60.34 120.6875 59.68 120.6875 59 120.6875 C59 120.0275 59 119.3675 59 118.6875 C58.34 118.6875 57.68 118.6875 57 118.6875 C57 118.0275 57 117.3675 57 116.6875 C56.34 116.6875 55.68 116.6875 55 116.6875 C55 116.0275 55 115.3675 55 114.6875 C54.34 114.6875 53.68 114.6875 53 114.6875 C53 114.0275 53 113.3675 53 112.6875 C52.15938522 112.33535179 52.15938522 112.33535179 51.30178833 111.97608948 C48.43625298 110.37190257 46.48449853 108.40376965 44.17138672 106.07006836 C43.70584381 105.60321121 43.2403009 105.13635406 42.76065063 104.65534973 C41.2290053 103.1172339 39.70446079 101.57226955 38.1796875 100.02734375 C37.11453451 98.95591807 36.04886321 97.88500743 34.98269653 96.81459045 C32.1811687 93.99977654 29.38526716 91.17944562 26.59094238 88.35748291 C22.11246871 83.83583977 17.62721547 79.32094588 13.13873672 74.80923653 C11.57087442 73.23113637 10.00646017 71.64967609 8.44235229 70.06785583 C7.48495792 69.10363541 6.52745452 68.13952322 5.56982422 67.17553711 C4.73361542 66.33107529 3.89740662 65.48661346 3.03585815 64.61656189 C1.14756776 62.64021333 1.14756776 62.64021333 -1 61.6875 C-1 61.0275 -1 60.3675 -1 59.6875 C-1.66 59.6875 -2.32 59.6875 -3 59.6875 C-3 59.0275 -3 58.3675 -3 57.6875 C-3.66 57.6875 -4.32 57.6875 -5 57.6875 C-5 57.0275 -5 56.3675 -5 55.6875 C-5.55993652 55.45788574 -6.11987305 55.22827148 -6.69677734 54.99169922 C-9.62485722 53.33367476 -11.54014657 51.26609756 -13.8515625 48.8203125 C-14.79495486 47.84185164 -15.73898657 46.86400687 -16.68359375 45.88671875 C-18.15154677 44.35725523 -19.61434792 42.82383791 -21.06591797 41.27880859 C-28.18970217 33.72210066 -34.2472549 28.64215004 -44.7578125 27.15625 C-46.42457031 27.17171875 -46.42457031 27.17171875 -48.125 27.1875 C-49.24132812 27.1771875 -50.35765625 27.166875 -51.5078125 27.15625 C-59.89568428 28.43225734 -65.23442819 33.35399993 -70.98901367 39.25415039 C-71.74292892 40.01069412 -72.49684418 40.76723785 -73.27360535 41.54670715 C-75.74774684 44.03376433 -78.20761677 46.53446366 -80.66796875 49.03515625 C-82.3923114 50.77204947 -84.11769491 52.50790992 -85.84407043 54.24278259 C-90.3765293 58.80178786 -94.89770463 63.37180554 -99.41571045 67.94512939 C-106.65488776 75.27070562 -113.90764978 82.58277114 -121.16692543 89.88842583 C-123.69824776 92.44017524 -126.22262454 94.99864952 -128.74638367 97.55787659 C-130.2970801 99.12222943 -131.84799699 100.68636378 -133.39916992 102.25024414 C-134.09798279 102.96253174 -134.79679565 103.67481934 -135.51678467 104.40869141 C-141.19527447 110.11359749 -145.98527044 113.80067689 -154.25 113.875 C-159.8874828 113.79155042 -164.72953173 113.00753969 -169.6875 110.125 C-174.25684263 105.30866588 -177.29156981 100.38990646 -177.4375 93.625 C-177.32607925 91.97647941 -177.18216995 90.32970852 -177 88.6875 C-176.896875 87.40875 -176.79375 86.13 -176.6875 84.8125 C-175.53342951 80.83875326 -173.15732361 78.40846293 -170.36499023 75.4128418 C-169.64142539 74.63605214 -169.64142539 74.63605214 -168.90324306 73.84356976 C-162.23928354 66.7398572 -155.35012794 59.85283781 -148.47265625 52.95703125 C-147.74750761 52.22905523 -147.02235897 51.50107922 -146.27523613 50.75104332 C-142.44503626 46.9059777 -138.61206841 43.06369829 -134.77661133 39.22387695 C-130.84877013 35.29053785 -126.93031231 31.34798736 -123.01393986 27.40323353 C-119.96729056 24.33784985 -116.91384604 21.27930223 -113.85857964 18.22250938 C-112.41180464 16.77273693 -110.96749509 15.32049924 -109.52586555 13.86561012 C-99.4582383 3.71193643 -89.44703084 -6.37443325 -76.1875 -12.25 C-75.58486328 -12.52650391 -74.98222656 -12.80300781 -74.36132812 -13.08789062 C-49.2528299 -24.33412452 -20.15594715 -17.83026094 0 0 Z " fill="#020101" transform="translate(420,72.3125)"/>
<path d="M0 0 C5.9126433 3.60064817 9.34090224 8.86451223 11.4375 15.375 C12.67347227 22.65501248 10.46736569 28.32491293 6.4375 34.375 C2.35877246 39.05514849 -2.23669969 41.07349788 -8.36328125 41.62890625 C-15.07414495 41.88798069 -19.22822335 41.53573578 -24.5625 37.375 C-30.13847359 31.91546206 -32.83207566 27.07463985 -33.0625 19.125 C-32.92092845 11.30317208 -30.33062978 7.08207212 -24.875 1.71484375 C-18.09211561 -3.53312068 -7.64305832 -3.4372008 0 0 Z " fill="#020201" transform="translate(187.5625,408.625)"/>
<path d="M0 0 C5.9126433 3.60064817 9.34090224 8.86451223 11.4375 15.375 C12.67347227 22.65501248 10.46736569 28.32491293 6.4375 34.375 C2.35877246 39.05514849 -2.23669969 41.07349788 -8.36328125 41.62890625 C-15.07414495 41.88798069 -19.22822335 41.53573578 -24.5625 37.375 C-30.13847359 31.91546206 -32.83207566 27.07463985 -33.0625 19.125 C-32.92092845 11.30317208 -30.33062978 7.08207212 -24.875 1.71484375 C-18.09211561 -3.53312068 -7.64305832 -3.4372008 0 0 Z " fill="#020201" transform="translate(275.5625,320.625)"/>
<path d="M0 0 C5.9126433 3.60064817 9.34090224 8.86451223 11.4375 15.375 C12.67347227 22.65501248 10.46736569 28.32491293 6.4375 34.375 C2.35877246 39.05514849 -2.23669969 41.07349788 -8.36328125 41.62890625 C-15.07414495 41.88798069 -19.22822335 41.53573578 -24.5625 37.375 C-30.13847359 31.91546206 -32.83207566 27.07463985 -33.0625 19.125 C-32.92092845 11.30317208 -30.33062978 7.08207212 -24.875 1.71484375 C-18.09211561 -3.53312068 -7.64305832 -3.4372008 0 0 Z " fill="#020201" transform="translate(451.5625,210.625)"/>
<path d="M0 0 C5.9126433 3.60064817 9.34090224 8.86451223 11.4375 15.375 C12.67347227 22.65501248 10.46736569 28.32491293 6.4375 34.375 C2.35877246 39.05514849 -2.23669969 41.07349788 -8.36328125 41.62890625 C-15.07414495 41.88798069 -19.22822335 41.53573578 -24.5625 37.375 C-30.13847359 31.91546206 -32.83207566 27.07463985 -33.0625 19.125 C-32.92092845 11.30317208 -30.33062978 7.08207212 -24.875 1.71484375 C-18.09211561 -3.53312068 -7.64305832 -3.4372008 0 0 Z " fill="#020201" transform="translate(385.5625,144.625)"/>
</svg>
